<svg width="20" height="21" viewBox="0 0 20 21" fill="none" xmlns="http://www.w3.org/2000/svg">
<path d="M14.375 6.53125V13.0938C14.375 13.4766 14.0742 13.75 13.7188 13.75C13.3359 13.75 13.0625 13.4766 13.0625 13.0938V8.11719L6.74609 14.4336C6.60937 14.5703 6.44531 14.625 6.28125 14.625C6.08984 14.625 5.92578 14.5703 5.81641 14.4336C5.54297 14.1875 5.54297 13.7773 5.81641 13.5312L12.1328 7.1875H7.15625C6.77344 7.1875 6.5 6.91406 6.5 6.53125C6.5 6.17578 6.77344 5.875 7.15625 5.875H13.7188C14.0742 5.875 14.375 6.17578 14.375 6.53125Z" fill="white"/>
</svg>
